<svg width="32" height="32" viewBox="0 0 32 32" fill="none" xmlns="http://www.w3.org/2000/svg">
<circle cx="16" cy="16" r="16" fill="black"/>
<path d="M12.0042 21.86C12.0042 22.34 12.1309 22.7467 12.3842 23.08C12.6376 23.4133 12.9709 23.58 13.3842 23.58C13.8109 23.58 14.1576 23.52 14.4242 23.4C14.7042 23.2667 14.9376 23.0667 15.1242 22.8C15.3109 22.52 15.4709 22.2133 15.6042 21.88C15.7376 21.5467 15.8442 21.1267 15.9242 20.62C16.0042 20.1 16.0642 19.5867 16.1042 19.08C16.1576 18.5733 16.1976 17.9667 16.2242 17.26C16.2642 16.54 16.2909 15.8667 16.3042 15.24C16.3709 13.4533 16.4509 11.8933 16.5442 10.56C15.9576 10.5867 15.5842 10.6 15.4242 10.6C14.6642 10.6 14.2842 10.2133 14.2842 9.44C14.2842 9.12 14.3242 8.8 14.4042 8.48C15.3242 8.69333 16.3842 8.8 17.5842 8.8C18.7976 8.8 20.1042 8.58667 21.5042 8.16C21.4376 8.8 21.1842 9.3 20.7442 9.66C20.3176 10.0067 19.8842 10.2133 19.4442 10.28C19.1909 10.3333 18.9576 10.3667 18.7442 10.38C18.4642 13.1667 18.2642 15.4133 18.1442 17.12C18.0376 18.8267 17.8442 20.1733 17.5642 21.16C17.2842 22.1333 16.9242 22.8733 16.4842 23.38C16.0442 23.8733 15.5842 24.22 15.1042 24.42C14.6376 24.62 14.1109 24.72 13.5242 24.72C12.3509 24.72 11.4642 24.3933 10.8642 23.74C10.2642 23.0733 9.96422 22.28 9.96422 21.36C9.96422 20.72 10.1576 20.1667 10.5442 19.7C10.9176 19.22 11.4442 18.98 12.1242 18.98C12.4709 18.98 12.7976 19.0867 13.1042 19.3C12.7576 19.5933 12.4842 19.9733 12.2842 20.44C12.0976 20.9067 12.0042 21.38 12.0042 21.86Z" fill="white"/>
</svg>
