<svg width="596" height="520" viewBox="0 0 596 520" fill="none" xmlns="http://www.w3.org/2000/svg">
  <g clip-path="url(#clip0_5_5)">
    <path d="M312.5 462.8C312.5 462.8 314.2 409.3 348.2 390.6C348.2 390.6 383.8 426.3 312.5 462.8Z" fill="#FDEBAE" />
    <path d="M312.5 462.8C312.5 462.8 316.7 532.4 387.2 518C388.1 518 390.6 490 312.5 462.8Z" fill="#FDEBAE" />
    <path d="M377.9 456C377.9 456 363.5 407.6 388.1 373.6C388.1 373.6 428 410.1 377.9 456Z" fill="#FDEBAE" />
    <path d="M377.9 456C377.9 456 385.5 511.2 462.8 491.7C463.7 491.6 473.8 454.3 377.9 456Z" fill="#FDEBAE" />
    <path d="M432.2 427.1C432.2 427.1 469.6 484.8 521.4 433.9C521.4 433.9 501.9 404.2 432.2 427.1Z" fill="#FDEBAE" />
    <path d="M432.2 427.1C432.2 427.1 402.5 412.7 420.3 346.4C421.2 346.4 473 373.6 432.2 427.1Z" fill="#FDEBAE" />
    <path
      d="M477.2 381.3C477.2 381.3 458.5 379.6 450 357.5C445.8 347.3 444.9 331.2 444.9 311.6C444.9 311.6 468.7 312.4 479.7 332.8C484.9 343.9 492.5 359.2 477.2 381.3Z"
      fill="#FDEBAE" />
    <path
      d="M477.2 381.3C477.2 381.3 481.4 399.1 501 401.7C512.9 403.4 535 402.5 550.3 391.5C569 377.9 569.8 364.3 569.8 364.3C569.8 364.3 546.9 355.8 522.2 364.3C510.4 368.5 495.1 374.5 477.2 381.3Z"
      fill="#FDEBAE" />
    <path d="M510.4 330.3C510.4 330.3 562.2 275.1 594.5 287C595.3 287 580 362.6 510.4 330.3Z" fill="#FDEBAE" />
    <path d="M510.4 330.3C510.4 330.3 471.3 323.5 461.1 270C461.1 270.9 518.9 273.4 510.4 330.3Z" fill="#FDEBAE" />
    <path d="M529.9 275.1C529.9 275.1 548.6 213.1 592.7 206.3C591.9 206.3 608.9 270.9 529.9 275.1Z" fill="#FDEBAE" />
    <path d="M529.9 275.1C529.9 275.1 473.9 267.5 463.7 227.5C463.7 227.6 512.9 214.8 529.9 275.1Z" fill="#FDEBAE" />
    <path d="M535.8 210.6C535.8 210.6 516.3 161.3 574 130.8C574.1 130.7 596.1 191 535.8 210.6Z" fill="#FDEBAE" />
    <path d="M535.8 210.6C535.8 210.6 462.8 227.6 448.3 181.7C448.4 181.7 490 154.5 535.8 210.6Z" fill="#FDEBAE" />
    <path d="M512.1 152C512.1 152 490.9 94.3 529.9 58.6C529.9 58.6 573.2 121.4 512.1 152Z" fill="#FDEBAE" />
    <path d="M512.1 152C512.1 152 470.5 107 425.5 148.6C425.4 148.6 466.2 174.9 512.1 152Z" fill="#FDEBAE" />
    <path d="M477.2 100.2C477.2 100.2 438.1 57.7 472.1 0C472.1 0 525.6 68.8 477.2 100.2Z" fill="#FDEBAE" />
    <path d="M433.9 67.1C433.9 67.1 435.6 11.1 358.3 7.7C358.4 7.6 356.7 66.2 433.9 67.1Z" fill="#FDEBAE" />
    <path d="M281.9 462.8C281.9 462.8 280.2 409.3 246.2 390.6C246.3 390.6 211.4 426.3 281.9 462.8Z" fill="#FDEBAE" />
    <path d="M281.9 462.8C281.9 462.8 277.7 532.4 207.2 518C207.2 518 203.8 490 281.9 462.8Z" fill="#FDEBAE" />
    <path d="M216.5 456C216.5 456 230.9 407.6 206.3 373.6C207.2 373.6 167.3 410.1 216.5 456Z" fill="#FDEBAE" />
    <path d="M216.5 456C216.5 456 208.9 511.2 131.6 491.7C131.6 491.6 120.6 454.3 216.5 456Z" fill="#FDEBAE" />
    <path d="M162.2 427.1C162.2 427.1 124.8 484.8 73 433.9C73 433.9 93.4 404.2 162.2 427.1Z" fill="#FDEBAE" />
    <path d="M162.2 427.1C162.2 427.1 191.9 412.7 174.1 346.4C174.1 346.4 122.3 373.6 162.2 427.1Z" fill="#FDEBAE" />
    <path
      d="M118 381.3C118 381.3 136.7 379.6 145.2 357.5C149.4 347.3 150.3 331.2 150.3 311.6C150.3 311.6 126.5 312.4 115.5 332.8C109.5 343.9 102.8 359.2 118 381.3Z"
      fill="#FDEBAE" />
    <path
      d="M118 381.3C118 381.3 113.8 399.1 94.2 401.7C82.3 403.4 60.2 402.5 44.9 391.5C26.3 377 25.5 364.3 25.5 364.3C25.5 364.3 48.4 355.8 73.1 364.3C84.9 368.5 99.4 374.5 118 381.3Z"
      fill="#FDEBAE" />
    <path d="M84.1 330.3C84.1 330.3 32.3 275.1 0 287C0 287 15.3 362.6 84.1 330.3Z" fill="#FDEBAE" />
    <path d="M84.1 330.3C84.1 330.3 123.2 323.5 133.4 270C134.2 270.9 76.4 273.4 84.1 330.3Z" fill="#FDEBAE" />
    <path d="M65.4 275.1C65.4 275.1 46.7 213.1 2.60001 206.3C2.50001 206.3 -14.4 270.9 65.4 275.1Z" fill="#FDEBAE" />
    <path d="M65.4 275.1C65.4 275.1 121.4 267.5 131.6 227.5C131.6 227.6 81.5 214.8 65.4 275.1Z" fill="#FDEBAE" />
    <path d="M58.6 210.6C58.6 210.6 78.1 161.3 20.4 130.8C20.4 130.7 -0.800049 191 58.6 210.6Z" fill="#FDEBAE" />
    <path d="M58.6 210.6C58.6 210.6 131.6 227.6 146.1 181.7C146.1 181.7 104.4 154.5 58.6 210.6Z" fill="#FDEBAE" />
    <path d="M83.2 152C83.2 152 104.4 94.3 65.4 58.6C65.4 58.6 21.2 121.4 83.2 152Z" fill="#FDEBAE" />
    <path d="M83.2 152C83.2 152 124.8 107 169.8 148.6C169.8 148.6 128.2 174.9 83.2 152Z" fill="#FDEBAE" />
    <path d="M118 100.2C118 100.2 157.1 57.7 123.1 0C123.1 0 69.6001 68.8 118 100.2Z" fill="#FDEBAE" />
    <path d="M118 102.4C118 102.4 150.9 63.5 199.7 112.4C199.9 112.4 155 138.2 118 102.4Z" fill="#FDEBAE" />
    <path d="M161.3 67.1C161.3 67.1 159.6 11.1 236.9 7.7C236.9 7.6 237.8 66.2 161.3 67.1Z" fill="#FDEBAE" />
    <path d="M477.2 102.3C477.2 102.3 444.4 63.5 395.7 112.3C395.7 112.3 440.4 138.1 477.2 102.3Z" fill="#FDEBAE" />
    <path
      d="M312.5 462.8C281.9 462.8 281.9 462.8 281.9 462.8C281.9 462.8 197.303 484.171 118 381.3C38.6974 278.429 58.6001 210.6 58.6001 210.6C58.6001 210.6 82.6765 111.174 161.3 67.1C239.924 23.026 212.062 38.505 212.062 38.505"
      stroke="#FDEBAE" stroke-width="8" />
    <path
      d="M281.9 462.8C312.5 462.8 312.5 462.8 312.5 462.8C312.5 462.8 397.097 484.171 476.4 381.3C555.703 278.429 535.8 210.6 535.8 210.6C535.8 210.6 511.724 111.174 433.1 67.1C354.476 23.026 382.339 38.505 382.339 38.505"
      stroke="#FDEBAE" stroke-width="8" />
  </g>
  <defs>
    <clipPath id="clip0_5_5">
      <rect width="595.3" height="519.9" fill="white" />
    </clipPath>
  </defs>
</svg>